<svg xmlns="http://www.w3.org/2000/svg" xmlns:xlink="http://www.w3.org/1999/xlink" width="21" height="21" viewBox="0 0 21 21">
  <defs>
    <style>
      .cls-1 {
        fill-rule: evenodd;
        filter: url(#filter);
      }
    </style>
    <filter id="filter" x="1661" y="4866" width="21" height="21" filterUnits="userSpaceOnUse">
      <feFlood result="flood" flood-color="#c7b299"/>
      <feComposite result="composite" operator="in" in2="SourceGraphic"/>
      <feBlend result="blend" in2="SourceGraphic"/>
    </filter>
  </defs>
  <path id="_01" data-name="01" class="cls-1" d="M1671.5,4866a10.5,10.5,0,1,0,10.5,10.5A10.5,10.5,0,0,0,1671.5,4866Zm3.29,11-4.54,4.54a0.7,0.7,0,0,1-.99-0.99l4.05-4.05-4.05-4.05a0.7,0.7,0,0,1,.99-0.99l4.54,4.54a0.656,0.656,0,0,1,.2.5A0.694,0.694,0,0,1,1674.79,4877Z" transform="translate(-1661 -4866)"/>
</svg>
