<svg xmlns="http://www.w3.org/2000/svg" xmlns:xlink="http://www.w3.org/1999/xlink" width="44" height="44" viewBox="0 0 44 44">
  <defs>
    <style>
      .cls-1 {
        fill-rule: evenodd;
        filter: url(#filter);
      }
    </style>
    <filter id="filter" x="1276" y="5234" width="44" height="44" filterUnits="userSpaceOnUse">
      <feFlood result="flood" flood-color="#c7b299"/>
      <feComposite result="composite" operator="in" in2="SourceGraphic"/>
      <feBlend result="blend" in2="SourceGraphic"/>
    </filter>
  </defs>
  <path id="icon" class="cls-1" d="M1295.94,5264.25c5.69,0,10.31-5.63,10.31-12.55s-4.62-12.54-10.31-12.54a9.449,9.449,0,0,0-7.4,3.78,14.062,14.062,0,0,0-2.92,8.76C1285.62,5258.62,1290.25,5264.25,1295.94,5264.25Zm0-22.34c4.17,0,7.56,4.39,7.56,9.79s-3.39,9.8-7.56,9.8-7.57-4.39-7.57-9.8S1291.77,5241.91,1295.94,5241.91Zm8.66,20.97a1.37,1.37,0,1,0,0,2.74,8.544,8.544,0,0,1,8.53,8.53,1.105,1.105,0,0,1-1.11,1.1h-32.17a1.1,1.1,0,0,1-1.1-1.1,8.536,8.536,0,0,1,8.52-8.53,1.37,1.37,0,1,0,0-2.74,11.282,11.282,0,0,0-11.27,11.27,3.858,3.858,0,0,0,3.85,3.85h32.17a3.86,3.86,0,0,0,3.86-3.85A11.284,11.284,0,0,0,1304.6,5262.88Zm-7.66-25.25a6.12,6.12,0,0,1,3.12-.88c4.17,0,7.56,4.4,7.56,9.8a12.588,12.588,0,0,1-.31,2.83,1.371,1.371,0,0,0,1.02,1.65,1.628,1.628,0,0,0,.31.03,1.367,1.367,0,0,0,1.34-1.06,15.142,15.142,0,0,0,.39-3.45c0-6.92-4.62-12.55-10.31-12.55a8.968,8.968,0,0,0-4.52,1.26A1.376,1.376,0,0,0,1296.94,5237.63Zm12.06,19.75a1.37,1.37,0,1,0,0,2.74,8.387,8.387,0,0,1,8.25,8.62,1.13,1.13,0,0,1-.09.45,1.374,1.374,0,0,0,2.51,1.12,3.846,3.846,0,0,0,.33-1.57A11.132,11.132,0,0,0,1309,5257.38Z" transform="translate(-1276 -5234)"/>
</svg>
