<svg xmlns="http://www.w3.org/2000/svg" xmlns:xlink="http://www.w3.org/1999/xlink" width="47.59" height="47.59" viewBox="0 0 47.59 47.59">
  <defs>
    <style>
      .cls-1 {
        fill-rule: evenodd;
        filter: url(#filter);
      }
    </style>
    <filter id="filter" x="1223.53" y="1460.88" width="47.59" height="47.59" filterUnits="userSpaceOnUse">
      <feFlood result="flood" flood-color="#555"/>
      <feComposite result="composite" operator="in" in2="SourceGraphic"/>
      <feBlend result="blend" in2="SourceGraphic"/>
    </filter>
  </defs>
  <path id="icon" class="cls-1" d="M1270.67,1477.47a1.593,1.593,0,0,0-2.25,0l-13.85,13.84-19.46,8.58-3-3,8.57-19.47,13.85-13.84a1.591,1.591,0,0,0-2.25-2.25l-14.27,14.26-14.48,32.87,32.87-14.47,14.27-14.27A1.593,1.593,0,0,0,1270.67,1477.47Zm-20.17,11a1.608,1.608,0,0,0,1.12.46,1.649,1.649,0,0,0,1.13-.46l13.33-13.34a1.591,1.591,0,0,0-2.25-2.25l-13.33,13.34A1.593,1.593,0,0,0,1250.5,1488.47Zm-3.48-3.48a1.593,1.593,0,0,0,2.24,0l13.34-13.34a1.591,1.591,0,0,0-2.25-2.25l-13.33,13.33A1.587,1.587,0,0,0,1247.02,1484.99Zm-3.49-3.49a1.6,1.6,0,0,0,1.13.47,1.576,1.576,0,0,0,1.12-.47l13.34-13.33a1.591,1.591,0,0,0-2.25-2.25l-13.34,13.33A1.593,1.593,0,0,0,1243.53,1481.5Z" transform="translate(-1223.53 -1460.88)"/>
</svg>
