<svg xmlns="http://www.w3.org/2000/svg" xmlns:xlink="http://www.w3.org/1999/xlink" width="48" height="44" viewBox="0 0 48 44">
  <defs>
    <style>
      .cls-1 {
        fill-rule: evenodd;
        filter: url(#filter);
      }
    </style>
    <filter id="filter" x="1472" y="5234" width="48" height="44" filterUnits="userSpaceOnUse">
      <feFlood result="flood" flood-color="#c7b299"/>
      <feComposite result="composite" operator="in" in2="SourceGraphic"/>
      <feBlend result="blend" in2="SourceGraphic"/>
    </filter>
  </defs>
  <path id="icon" class="cls-1" d="M1518.04,5276.75a1.24,1.24,0,0,1-1.23,1.25h-43.58a1.25,1.25,0,0,1,0-2.5h43.58A1.24,1.24,0,0,1,1518.04,5276.75Zm-24.27-20.54a1.21,1.21,0,0,0,1.74-.06,1.26,1.26,0,0,0-.06-1.77c-2.11-2-1.66-6.07.16-8.37,2.47-3.12,3.01-8.68-.16-11.67a1.214,1.214,0,0,0-1.74.06,1.259,1.259,0,0,0,.06,1.77c1.9,1.79,1.86,5.82-.09,8.28a10.123,10.123,0,0,0-2.09,5.95A7.558,7.558,0,0,0,1493.77,5256.21Zm26.23-2.6v2.4a6.2,6.2,0,0,1-6.15,6.24h-2.76a13.51,13.51,0,0,1-12.68,9.05h-6.77a13.583,13.583,0,0,1-13.48-13.66v-12.41a1.248,1.248,0,0,1,1.24-1.25h7.91c1.61-2.48,1.54-6.13-.25-7.81a1.269,1.269,0,0,1-.06-1.77,1.226,1.226,0,0,1,1.75-.06c3.16,2.99,2.62,8.55.15,11.67-1.82,2.3-2.27,6.37-.15,8.37a1.279,1.279,0,0,1,.06,1.77,1.226,1.226,0,0,1-1.75.06,7.594,7.594,0,0,1-2.18-5.81,10.325,10.325,0,0,1,.88-3.92h-5.13v11.16a11.1,11.1,0,0,0,11.01,11.16h6.77a11.093,11.093,0,0,0,11-11.16v-11.16h-9.28a1.25,1.25,0,0,1,0-2.5h10.52a1.24,1.24,0,0,1,1.23,1.25v2.15h1.97A6.2,6.2,0,0,1,1520,5253.61Zm-2.47,0a3.707,3.707,0,0,0-3.68-3.73h-1.97v9.87h1.97a3.709,3.709,0,0,0,3.68-3.74v-2.4Z" transform="translate(-1472 -5234)"/>
</svg>
