<svg xmlns="http://www.w3.org/2000/svg" xmlns:xlink="http://www.w3.org/1999/xlink" width="18" height="24" viewBox="0 0 18 24">
  <defs>
    <style>
      .cls-1 {
        fill-rule: evenodd;
        filter: url(#filter);
      }
    </style>
    <filter id="filter" x="2212" y="411" width="18" height="24" filterUnits="userSpaceOnUse">
      <feFlood result="flood" flood-color="#fff"/>
      <feComposite result="composite" operator="in" in2="SourceGraphic"/>
      <feBlend result="blend" in2="SourceGraphic"/>
    </filter>
  </defs>
  <path id="icon-cart" class="cls-1" d="M2227,414h-1.5c0-1.657-2.02-3-4.5-3s-4.5,1.344-4.5,3H2215a3,3,0,0,0-3,3v15a3,3,0,0,0,3,3h12a3,3,0,0,0,2.99-3V417A3,3,0,0,0,2227,414Zm-6-1.5c1.66,0,3,.464,3,1.5h-6C2218,412.962,2219.34,412.5,2221,412.5Zm7.49,19.5a1.5,1.5,0,0,1-1.49,1.5h-12a1.5,1.5,0,0,1-1.5-1.5v-1.5h14.99V432Zm0-3H2213.5V417a1.5,1.5,0,0,1,1.5-1.5h1.5V420h1.5v-4.5h6V420h1.5v-4.5h1.5a1.5,1.5,0,0,1,1.49,1.5v12Z" transform="translate(-2212 -411)"/>
</svg>
