<svg id="Play_Video" data-name="Play Video" xmlns="http://www.w3.org/2000/svg" xmlns:xlink="http://www.w3.org/1999/xlink" width="100" height="100" viewBox="0 0 100 100">
  <defs>
    <style>
      .cls-1 {
        opacity: 0.2;
      }

      .cls-2 {
        fill-rule: evenodd;
        filter: url(#filter);
      }
    </style>
    <filter id="filter" x="1662.03" y="3990.03" width="69.97" height="69.97" filterUnits="userSpaceOnUse">
      <feFlood result="flood" flood-color="#fff"/>
      <feComposite result="composite" operator="in" in2="SourceGraphic"/>
      <feBlend result="blend" in2="SourceGraphic"/>
    </filter>
  </defs>
  <circle id="circle" class="cls-1" cx="50" cy="50" r="50"/>
  <path id="icon-play" class="cls-2" d="M1691.93,4041.82a2.236,2.236,0,0,1-.87-0.19,2.077,2.077,0,0,1-1.19-1.87v-29.53a2.064,2.064,0,0,1,3.38-1.58l17.72,14.77a2.057,2.057,0,0,1,0,3.16l-17.72,14.76A2.007,2.007,0,0,1,1691.93,4041.82Zm2.06-27.19v20.73l12.44-10.36Zm2.95,45.37a34.788,34.788,0,0,1-17.11-4.47,2.06,2.06,0,0,1,2.02-3.59,30.924,30.924,0,1,0-6.7-5.09,2.058,2.058,0,1,1-2.91,2.91A35.054,35.054,0,1,1,1696.94,4060Z" transform="translate(-1647 -3975)"/>
</svg>
